Coordinates
version=1
nRows=8
nColumns=40
inDegrees=yes

Units are S.I. units (second, meters, Newtons, ...)
Angles are in degrees.

endheader
time	pelvis_tilt	pelvis_list	pelvis_rotation	pelvis_tx	pelvis_ty	pelvis_tz	hip_flexion_r	hip_adduction_r	hip_rotation_r	knee_angle_r	knee_angle_r_beta	ankle_angle_r	subtalar_angle_r	mtp_angle_r	hip_flexion_l	hip_adduction_l	hip_rotation_l	knee_angle_l	knee_angle_l_beta	ankle_angle_l	subtalar_angle_l	mtp_angle_l	lumbar_extension	lumbar_bending	lumbar_rotation	arm_flex_r	arm_add_r	arm_rot_r	elbow_flex_r	pro_sup_r	wrist_flex_r	wrist_dev_r	arm_flex_l	arm_add_l	arm_rot_l	elbow_flex_l	pro_sup_l	wrist_flex_l	wrist_dev_l
     19.05642857	     -5.93526864	     -5.47448269	     -6.74234885	      0.98807050	      0.91329738	      0.40627131	     29.60695866	     -4.51450213	     -2.52198603	     63.68751146	     63.68751146	      4.22176666	    -17.07640076	      2.72496446	     21.04332026	     -5.06797673	     -5.27713541	     34.05265569	     34.05265569	     21.51522647	    -18.41596964	     10.85375561	    -11.73235903	      6.36044219	      3.33755997	      8.41645494	    -12.85488489	    -11.47910313	     21.99435566	     46.95798259	      0.00000000	      0.00000000	     23.57172801	    -17.56961147	      9.51356042	     37.08061127	     45.86252999	      0.00000000	      0.00000000
     19.07535714	     -6.08687503	     -5.53894920	     -7.50458387	      0.98649320	      0.91447264	      0.40667066	     30.54277306	     -4.04786972	     -2.67231140	     61.79333496	     61.79333496	      5.02844552	    -16.83746688	      2.36861765	     20.39204857	     -5.29300079	     -5.96915304	     33.34425780	     33.34425780	     21.53976570	    -18.36424958	     10.81837558	    -11.78692636	      6.56303877	      3.38543699	      5.77543517	    -13.23883000	    -11.78981043	     21.06376679	     47.00786317	      0.00000000	      0.00000000	     24.71507645	    -17.98416927	      8.35824793	     38.90160680	     46.02500026	      0.00000000	      0.00000000
     19.09428571	     -6.34849087	     -5.58923648	     -8.25463049	      0.98493910	      0.91587955	      0.40744283	     31.27127118	     -3.55667755	     -2.92816071	     58.97364372	     58.97364372	      5.14856925	    -16.58352814	     -0.21114696	     19.73362325	     -5.54070320	     -6.74030069	     32.38626843	     32.38626843	     21.16581026	    -18.30864681	      9.99123439	    -11.75320122	      6.76092386	      2.81830619	      3.33689511	    -13.37534305	    -13.08286759	     21.46847813	     47.10637301	      0.00000000	      0.00000000	     24.57486775	    -18.34514421	      3.43721265	     42.75866961	     46.59403538	      0.00000000	      0.00000000
     19.11321429	     -6.64057519	     -5.62867877	     -9.01746694	      0.98339465	      0.91769454	      0.40858196	     31.73486772	     -3.00972842	     -3.23039545	     55.36962491	     55.36962491	      5.28247983	    -15.92012822	     -2.66142405	     18.96117286	     -5.76580937	     -7.51733156	     31.16320896	     31.16320896	     20.79038029	    -18.19601619	      9.54434045	    -11.64999275	      6.89721584	      2.67378069	      0.96614798	    -13.72045489	    -13.72274732	     21.14119704	     47.17097279	      0.00000000	      0.00000000	     25.35460272	    -18.49605883	      0.63496277	     45.03122153	     46.89494666	      0.00000000	      0.00000000
     19.13214286	     -6.94444476	     -5.70780825	     -9.78325292	      0.98180562	      0.91968280	      0.41016605	     31.99027271	     -2.33534932	     -3.50590562	     51.27035383	     51.27035383	      5.98854810	    -14.33141400	     -2.99378359	     18.17716038	     -6.03568938	     -8.24524075	     29.92372119	     29.92372119	     20.60415616	    -18.01616629	      9.70868162	    -11.46636352	      7.08775949	      2.71650299	     -1.17974060	    -13.98676081	    -13.83692421	     20.52013690	     47.18923857	      0.00000000	      0.00000000	     26.53437764	    -18.92965509	      0.02174088	     46.40435914	     46.97651348	      0.00000000	      0.00000000
     19.15107143	     -7.33404767	     -5.62718479	    -10.55321955	      0.98023049	      0.92142650	      0.41203915	     32.09218159	     -1.84542690	     -3.86514880	     46.61072975	     46.61072975	      6.10887487	    -12.29194805	     -4.68945853	     17.42132114	     -6.16250285	     -9.13365907	     28.51253149	     28.51253149	     20.08532049	    -17.86197953	      9.14451554	    -11.26046727	      7.05234421	      2.99736618	     -3.84319585	    -14.16799557	    -14.28182711	     21.23301745	     47.16758481	      0.00000000	      0.00000000	     27.28762326	    -19.03911534	     -1.98359942	     49.63194305	     47.19470461	      0.00000000	      0.00000000
     19.17000000	     -7.66345636	     -5.70233923	    -11.22264518	      0.97872269	      0.92330064	      0.41428036	     31.76621546	     -1.09447653	     -4.16279899	     41.44804469	     41.44804469	      6.28454488	     -9.93832533	     -4.64706790	     16.62877201	     -6.42185498	     -9.81433209	     27.20293664	     27.20293664	     19.84715738	    -17.59778623	      9.21718506	    -11.03841503	      7.19611781	      2.76268709	     -5.58352373	    -14.31570913	    -14.41818743	     21.09486932	     47.16666701	      0.00000000	      0.00000000	     28.34258903	    -19.66312979	     -2.69560632	     50.88976403	     47.27880903	      0.00000000	      0.00000000
     19.18892857	     -7.86438338	     -5.66984913	    -11.86167695	      0.97740882	      0.92492858	      0.41680211	     31.11413100	     -0.55120757	     -4.59440940	     36.12898565	     36.12898565	      6.31116541	     -6.71788091	     -4.60914080	     15.68242215	     -6.54003711	    -10.54367578	     25.84978471	     25.84978471	     19.55007645	    -17.33538928	      9.06620448	    -10.95921563	      7.15936681	      2.87598980	     -7.51865221	    -14.35767467	    -14.61525242	     21.31044977	     47.15033440	      0.00000000	      0.00000000	     29.48023194	    -19.96230249	     -3.71198011	     52.91903514	     47.39788628	      0.00000000	      0.00000000
